<svg viewBox="0 0 191 60" fill="none" xmlns="http://www.w3.org/2000/svg">
<path d="M70.9567 30.3956C70.9567 32.1409 71.2544 33.6706 71.8499 34.9847C72.4453 36.2988 73.2666 37.3254 74.3138 38.0646C75.3815 38.8037 76.5929 39.1733 77.9481 39.1733C79.3854 39.1733 80.5968 38.7832 81.5823 38.003C82.5884 37.2022 83.2866 36.1037 83.6767 34.7075L86.4794 35.6314C85.8429 37.541 84.7854 39.0501 83.3071 40.1589C81.8493 41.2471 80.0629 41.7912 77.9481 41.7912C76.5108 41.7912 75.1864 41.514 73.975 40.9597C72.7636 40.4053 71.7061 39.625 70.8027 38.6189C69.9198 37.6128 69.232 36.4117 68.7392 35.0155C68.2464 33.6192 68 32.0793 68 30.3956C68 28.7119 68.2464 27.172 68.7392 25.7758C69.232 24.3796 69.9198 23.1784 70.8027 22.1723C71.7061 21.1662 72.7636 20.386 73.975 19.8316C75.1864 19.2772 76.5108 19 77.9481 19C80.0629 19 81.8493 19.5544 83.3071 20.6631C84.7854 21.7514 85.8429 23.2503 86.4794 25.1598L83.6767 26.0838C83.2866 24.6875 82.5884 23.5993 81.5823 22.8191C80.5968 22.0183 79.3854 21.6179 77.9481 21.6179C76.5929 21.6179 75.3815 21.9875 74.3138 22.7267C73.2666 23.4659 72.4453 24.4925 71.8499 25.8066C71.2544 27.1207 70.9567 28.6503 70.9567 30.3956Z" fill="black"></path>
<path d="M89.4724 41.4524V19.3388H92.2443V27.5313C92.7166 26.8743 93.3531 26.2994 94.1539 25.8066C94.9546 25.2933 95.9197 25.0366 97.049 25.0366C98.7532 25.0366 100.067 25.5807 100.991 26.6689C101.936 27.7366 102.408 29.1226 102.408 30.8268V41.4524H99.6361V31.566C99.6361 30.4367 99.3794 29.5024 98.8661 28.7633C98.3528 28.0036 97.4904 27.6237 96.279 27.6237C95.6219 27.6237 94.9752 27.788 94.3387 28.1165C93.7227 28.445 93.2196 28.9275 92.8295 29.564C92.4394 30.18 92.2443 30.9397 92.2443 31.8432V41.4524H89.4724Z" fill="black"></path>
<path d="M110.892 41.7296C109.927 41.7296 109.033 41.5448 108.212 41.1753C107.411 40.8057 106.775 40.2821 106.303 39.6045C105.83 38.9064 105.594 38.0748 105.594 37.1098C105.594 36.0421 105.851 35.1695 106.364 34.4919C106.878 33.7938 107.596 33.2394 108.52 32.8287C109.444 32.4181 110.502 32.0896 111.692 31.8432L115.604 31.0424V30.3648C115.604 29.4409 115.347 28.7325 114.834 28.2397C114.321 27.7264 113.52 27.4697 112.432 27.4697C110.46 27.4697 109.218 28.3834 108.705 30.2108L106.087 29.5332C106.477 28.2192 107.237 27.1412 108.366 26.2994C109.495 25.4575 110.881 25.0366 112.524 25.0366C114.331 25.0366 115.748 25.478 116.774 26.361C117.821 27.2233 118.345 28.5169 118.345 30.2416V38.0954C118.345 38.6087 118.499 38.9577 118.807 39.1425C119.115 39.3273 119.536 39.3581 120.07 39.2349V41.4524C117.585 41.7604 116.179 41.1547 115.85 39.6353C115.358 40.2718 114.68 40.7851 113.818 41.1753C112.955 41.5448 111.98 41.7296 110.892 41.7296ZM115.604 35.9702V33.1983L112.462 33.8759C111.23 34.1223 110.235 34.4611 109.475 34.8923C108.715 35.3235 108.335 36.0216 108.335 36.9866C108.335 37.7668 108.592 38.3828 109.105 38.8345C109.639 39.2657 110.348 39.4813 111.23 39.4813C112.031 39.4813 112.76 39.3376 113.417 39.0501C114.074 38.7421 114.598 38.3212 114.988 37.7874C115.399 37.2535 115.604 36.6478 115.604 35.9702Z" fill="black"></path>
<path d="M123.5 37.6026V27.7161H121.005V25.3446H123.5V20.6323H126.241V25.3446H129.906V27.7161H126.241V37.1714C126.241 38.0132 126.436 38.5573 126.826 38.8037C127.237 39.0501 127.791 39.1733 128.489 39.1733C128.818 39.1733 129.105 39.1631 129.352 39.1425C129.618 39.122 129.916 39.0707 130.245 38.9885V41.3601C129.896 41.4422 129.516 41.5038 129.105 41.5448C128.715 41.5859 128.284 41.6064 127.812 41.6064C126.436 41.6064 125.368 41.3293 124.608 40.7749C123.869 40.2 123.5 39.1425 123.5 37.6026Z" fill="black"></path>
<path d="M148.627 41.4524V38.157C148.339 38.8345 147.888 39.4505 147.272 40.0049C146.656 40.5593 145.917 41.0007 145.054 41.3293C144.212 41.6372 143.258 41.7912 142.19 41.7912C140.321 41.7912 138.638 41.319 137.139 40.3745C135.661 39.4094 134.49 38.0748 133.628 36.3706C132.786 34.6664 132.365 32.6953 132.365 30.4572C132.365 28.7735 132.611 27.2336 133.104 25.8374C133.597 24.4412 134.295 23.2297 135.199 22.2031C136.102 21.1765 137.159 20.386 138.371 19.8316C139.603 19.2772 140.937 19 142.375 19C144.51 19 146.307 19.5441 147.765 20.6323C149.243 21.7206 150.311 23.2195 150.968 25.129L148.134 26.053C147.744 24.6567 147.056 23.5685 146.071 22.7883C145.085 22.008 143.863 21.6179 142.405 21.6179C141.009 21.6179 139.777 21.9875 138.71 22.7267C137.642 23.4659 136.81 24.5027 136.215 25.8374C135.619 27.1515 135.322 28.6811 135.322 30.4264C135.322 32.1512 135.619 33.6808 136.215 35.0155C136.81 36.3296 137.642 37.3665 138.71 38.1262C139.798 38.8653 141.04 39.2349 142.436 39.2349C143.627 39.2349 144.674 38.9577 145.578 38.4033C146.481 37.8284 147.179 37.0379 147.672 36.0318C148.185 35.0257 148.452 33.8656 148.473 32.5515H142.128V29.9644H151.337V41.4524H148.627Z" fill="black"></path>
<path d="M158.782 32.182V41.4524H155.825V19.3388H164.264C166.605 19.3388 168.463 19.8829 169.839 20.9711C171.235 22.0388 171.933 23.6301 171.933 25.745C171.933 27.8188 171.235 29.4101 169.839 30.5188C168.463 31.6276 166.605 32.182 164.264 32.182H158.782ZM158.782 29.6256H164.11C165.691 29.6256 166.903 29.2971 167.745 28.6401C168.586 27.9625 169.007 26.9975 169.007 25.745C169.007 24.4925 168.586 23.5377 167.745 22.8807C166.903 22.2236 165.691 21.8951 164.11 21.8951H158.782V29.6256Z" fill="black"></path>
<path d="M191 21.9259H183.516V41.4524H180.559V21.9259H173.075V19.3388H191V21.9259Z" fill="black"></path>
<circle cx="30" cy="30" r="29.5" fill="white" stroke="#F9F9F9"></circle>
<path d="M49.0334 25.6655C49.5447 24.1301 49.722 22.5034 49.5536 20.8941C49.3852 19.2847 48.8749 17.7299 48.057 16.3337C46.8445 14.2219 44.9924 12.5499 42.768 11.559C40.5437 10.5681 38.062 10.3095 35.6809 10.8205C34.607 9.61021 33.287 8.64328 31.8091 7.98444C30.3312 7.32561 28.7297 6.99005 27.1117 7.00022C24.6774 6.99435 22.3042 7.76167 20.334 9.19158C18.3639 10.6215 16.8988 12.6401 16.1499 14.9563C14.5641 15.2809 13.0659 15.9406 11.7557 16.8911C10.4454 17.8416 9.35337 19.061 8.55258 20.4678C7.3304 22.5738 6.8087 25.0134 7.06272 27.4352C7.31675 29.8568 8.33336 32.1351 9.96596 33.9416C9.45477 35.4769 9.27744 37.1036 9.44583 38.713C9.61422 40.3224 10.1245 41.8771 10.9424 43.2734C12.155 45.3851 14.0071 47.0569 16.2315 48.0479C18.4558 49.0388 20.9375 49.2975 23.3185 48.7866C24.3924 49.9969 25.7125 50.9637 27.1903 51.6226C28.6682 52.2814 30.2697 52.617 31.8877 52.6068C34.3232 52.6132 36.6977 51.8456 38.6685 50.4147C40.6395 48.9839 42.1048 46.9639 42.8531 44.6462C44.4389 44.3216 45.9371 43.662 47.2473 42.7115C48.5575 41.761 49.6496 40.5415 50.4504 39.1347C51.6711 37.029 52.1916 34.5899 51.9369 32.1692C51.6823 29.7485 50.6656 27.4712 49.0334 25.6655ZM31.8913 49.6254C29.892 49.6282 27.9556 48.9281 26.4203 47.6474C26.4895 47.6097 26.6109 47.5431 26.6901 47.4946L35.7709 42.2493C35.9988 42.1196 36.1881 41.9316 36.3192 41.7045C36.4504 41.4774 36.5187 41.2194 36.5171 40.9573V28.1551L40.3554 30.3713C40.3755 30.3814 40.3928 30.3962 40.4059 30.4146C40.4189 30.4329 40.4272 30.4542 40.43 30.4765V41.0786C40.4272 43.3431 39.5269 45.5142 37.9264 47.1161C36.3259 48.7182 34.1557 49.6205 31.8913 49.6254ZM13.5282 41.7827C12.5268 40.0524 12.1658 38.025 12.5086 36.0554C12.576 36.0958 12.6938 36.1678 12.7783 36.2163L21.8591 41.4616C22.0855 41.5939 22.3429 41.6637 22.605 41.6637C22.8671 41.6637 23.1245 41.5939 23.3508 41.4616L34.4376 35.0601V39.4926C34.4388 39.5152 34.4345 39.5379 34.4249 39.5584C34.4153 39.579 34.4009 39.5969 34.3827 39.6104L25.2029 44.9105C23.2394 46.0415 20.9074 46.3472 18.7188 45.7608C16.53 45.1744 14.6633 43.7437 13.5282 41.7827ZM11.1393 21.9584C12.1364 20.2258 13.7112 18.8993 15.588 18.211C15.588 18.2892 15.5835 18.4278 15.5835 18.5239V29.0145C15.5819 29.2765 15.6501 29.5342 15.7811 29.7612C15.9121 29.9881 16.1012 30.176 16.3289 30.3057L27.4156 36.7064L23.5774 38.9226C23.5585 38.9351 23.5367 38.9426 23.5141 38.9447C23.4915 38.9467 23.4687 38.9432 23.4479 38.9343L14.2672 33.6296C12.3071 32.4945 10.8771 30.6285 10.2908 28.4406C9.70442 26.2528 10.0096 23.9217 11.1393 21.9584ZM42.6742 29.2968L31.5874 22.8953L35.4257 20.68C35.4446 20.6675 35.4664 20.6599 35.4889 20.6578C35.5115 20.6558 35.5342 20.6594 35.5551 20.6683L44.7358 25.9684C46.1423 26.7809 47.2882 27.9772 48.0394 29.4174C48.7906 30.8575 49.1159 32.4818 48.9773 34.1002C48.8388 35.7185 48.2419 37.2639 47.2569 38.5554C46.2718 39.8469 44.9392 40.831 43.415 41.3924C43.415 41.3133 43.415 41.1749 43.415 41.0786V30.588C43.4171 30.3264 43.3497 30.069 43.2194 29.8421C43.0892 29.6152 42.9011 29.4271 42.6742 29.2968ZM46.4944 23.5472C46.427 23.5058 46.3092 23.4347 46.2247 23.3863L37.1438 18.1409C36.9175 18.0089 36.6601 17.9392 36.398 17.9392C36.136 17.9392 35.8785 18.0089 35.6522 18.1409L24.5655 24.5425V20.11C24.5642 20.0873 24.5685 20.0647 24.5781 20.0442C24.5877 20.0237 24.6022 20.0058 24.6203 19.9922L33.8001 14.6965C35.2064 13.8856 36.8146 13.4919 38.4365 13.5615C40.0584 13.6311 41.6268 14.1612 42.9586 15.0896C44.2902 16.0181 45.3299 17.3066 45.9561 18.8044C46.5823 20.3021 46.769 21.9471 46.4944 23.5472ZM22.4787 31.4476L18.6395 29.2313C18.6194 29.2212 18.602 29.2064 18.589 29.1881C18.576 29.1697 18.5677 29.1484 18.5649 29.126V18.5239C18.566 16.9001 19.0296 15.3102 19.9013 13.9402C20.7732 12.5703 22.0173 11.477 23.4879 10.7884C24.9585 10.0998 26.5948 9.84433 28.2053 10.0519C29.8159 10.2595 31.3339 10.9215 32.5818 11.9605C32.5126 11.9983 32.3921 12.0648 32.3121 12.1134L23.2312 17.3587C23.0033 17.4882 22.8142 17.6761 22.6829 17.9031C22.5518 18.13 22.4835 18.3877 22.485 18.6498L22.4787 31.4476ZM24.5636 26.9521L29.5015 24.1001L34.4393 26.9502V32.6523L29.5015 35.5025L24.5636 32.6523V26.9521Z" fill="black"></path>
</svg>
